<svg width="365" height="97" viewBox="0 0 365 97" fill="none" xmlns="http://www.w3.org/2000/svg">
<path d="M157.811 39.6911C150.979 39.6911 144.938 42.0656 141.772 45.7298V10.0547C141.772 4.51435 137.285 0 131.714 0H127.052V95.6809H141.772V68.3309C141.772 59.7419 147.988 53.4394 156.286 53.3515C157.019 53.3515 157.723 53.3808 158.427 53.4687C158.544 53.4687 158.661 53.498 158.749 53.498C165.816 54.612 171.211 60.8852 171.211 68.3016V85.5969C171.211 91.1372 175.727 95.6516 181.268 95.6516H185.931V68.3016C185.96 51.2702 174.378 39.6911 157.811 39.6911Z" fill="white"/>
<path d="M220.736 39.6912C217.071 39.7498 213.552 40.4533 210.356 41.7138C199.184 46.0816 191.443 57.0157 191.912 69.738C192.381 82.431 199.389 91.8701 210.033 95.4171C210.151 95.4464 210.239 95.4757 210.356 95.5343C213.317 96.5017 216.572 97 220.003 97C223.433 97 226.629 96.4137 229.444 95.3584C232.23 94.3031 234.605 92.8081 236.306 90.9613C236.306 93.5703 238.417 95.6809 241.027 95.6809H250.761V68.3309C250.791 51.065 238.124 39.4273 220.736 39.6912ZM221.322 83.3397C216.865 83.3397 212.995 81.4929 210.356 78.5029C208.01 75.8646 206.603 72.3176 206.603 68.3603C206.603 64.2856 208.01 60.7093 210.356 58.1004C212.995 55.1396 216.865 53.3808 221.322 53.3808C230.002 53.3808 236.042 59.6833 236.042 68.3603C236.042 76.7734 230.002 83.3397 221.322 83.3397Z" fill="white"/>
<path d="M285.567 54.055C289.789 54.055 293.454 55.55 296.357 58.071L306.092 48.8078C300.316 43.2967 293.718 41.0396 285.567 41.0396C281.901 41.0396 278.383 41.6845 275.099 42.8863C275.011 42.9156 274.923 42.945 274.835 42.9743C274.659 43.0329 274.483 43.1208 274.307 43.1795C274.19 43.2088 274.102 43.2674 273.985 43.326C273.867 43.3554 273.779 43.414 273.662 43.4433C267.211 46.1695 261.963 50.9184 258.942 56.8105C258.913 56.8984 258.854 56.9864 258.825 57.0743C258.796 57.1329 258.766 57.2209 258.708 57.2795C257.036 60.6799 256.098 64.4321 256.098 68.3602C256.098 68.4188 256.098 68.4481 256.098 68.5068C256.098 68.5947 256.098 68.6533 256.098 68.7413C256.098 69.0051 256.098 69.2396 256.127 69.5034C256.127 69.5328 256.127 69.5621 256.127 69.5621C256.127 69.65 256.127 69.7379 256.127 69.8259C256.127 69.9138 256.127 70.0311 256.157 70.119C256.157 70.207 256.157 70.2949 256.186 70.4122C256.245 71.3502 256.362 72.259 256.479 73.1384C256.479 73.2263 256.509 73.3143 256.509 73.4022C256.509 73.4901 256.538 73.5781 256.538 73.6367C256.567 73.7247 256.567 73.8419 256.597 73.9299C258.444 83.7794 265.129 91.0492 274.659 94.0099C277.972 95.0946 281.638 95.6808 285.567 95.6808C293.19 95.6808 300.58 92.6615 305.828 87.4143L296.093 78.3856C293.454 80.9066 289.525 82.6654 285.567 82.6654C277.151 82.6654 270.818 76.3922 270.818 68.3602C270.818 60.0643 277.151 54.055 285.567 54.055Z" fill="white"/>
<path d="M365 41.0103H347.641L326.735 61.9112V10.0547C326.735 4.51435 322.219 0 316.677 0H312.015V95.6809H326.735V79.4409L332.482 73.6954L348.726 95.6809H365L341.982 64.1976L365 41.0103Z" fill="white"/>
<path d="M106.292 51.065V95.6809H110.954C111.805 95.6809 112.626 95.5636 113.417 95.3877C117.786 94.3031 121.012 90.3457 121.012 85.6262V41.0103H116.35C110.808 41.0103 106.292 45.4953 106.292 51.065Z" fill="white"/>
<path d="M106.409 22.8649V27.2034H113.769H121.129V19.8455V19.4352V12.1653H117.112C111.218 12.1653 106.409 16.9435 106.409 22.8649Z" fill="white"/>
<path d="M56.826 74.3167C55.9757 76.6325 54.8321 78.8017 53.454 80.7951L46.1821 70.9749C44.4815 68.6591 43.7484 65.757 44.1589 62.9135C44.4815 60.7443 44.9799 58.3406 45.5664 56.2593C45.713 55.7316 45.8596 55.2333 46.0062 54.7349L46.0355 54.6177C46.2994 53.7969 46.5633 53.0934 46.8272 52.5071C46.8272 52.5071 46.8272 52.5071 46.8272 52.5364L47.0911 52.8882L55.3306 64.0275C56.6501 65.8156 57.3831 67.9556 57.4711 70.1248C57.4711 70.1834 57.4711 70.2127 57.4711 70.2714C57.5297 71.6198 57.3245 72.9976 56.826 74.3167Z" fill="white"/>
<path d="M49.5835 86.2475L49.3489 86.482C49.1143 86.7165 48.8504 86.9804 48.5865 87.2149C48.3226 87.4494 48.0587 87.6839 47.7948 87.9184C47.5896 88.0943 47.3843 88.2702 47.1791 88.4167C46.5633 88.9151 45.9475 89.3841 45.3025 89.8238C45.0092 90.029 44.716 90.2049 44.4228 90.4101C39.9365 93.2536 34.6293 94.8951 28.9408 94.8951C13.9573 94.8951 1.70067 83.3161 0.14661 68.6884C0.117288 68.3073 0.058644 67.9263 0.058644 67.5452C0 66.871 0 66.226 0 65.5518V37H4.22236C9.76422 37 14.2798 41.5144 14.2798 47.0547V65.6691C14.2798 68.3073 14.9542 70.799 16.1564 72.9683C18.4435 77.1015 22.6366 80.0623 27.504 80.5899C27.6213 80.5899 27.7386 80.6192 27.8559 80.6192C28.325 80.6485 28.7942 80.6778 29.2633 80.6485C31.1106 80.6192 32.8699 80.2381 34.4826 79.5932C34.9811 79.388 35.4796 79.1535 35.9487 78.919C36.066 78.8604 36.154 78.8018 36.242 78.7431C36.242 78.7431 36.2713 78.7431 36.2713 78.7138C36.3886 78.6552 36.5059 78.5966 36.5938 78.5086C36.7111 78.45 36.7991 78.362 36.9164 78.3034C37.0337 78.2448 37.1216 78.1568 37.2389 78.0982C37.3562 78.0396 37.4442 77.9516 37.5615 77.893C37.6787 77.8051 37.7667 77.7464 37.884 77.6585C38.705 77.0429 39.4381 76.3394 40.1125 75.5772C40.2004 75.4893 40.2591 75.4013 40.3177 75.3134C40.523 75.0496 40.7282 74.7857 40.9335 74.5219L41.4026 75.1668L48.0294 84.1369L49.5835 86.2475Z" fill="white"/>
<path d="M100.369 67.0468V95.5987H96.1761C90.6342 95.5987 86.1186 91.0843 86.1186 85.544V66.9296C86.1186 64.2913 85.4442 61.7996 84.242 59.6304C81.9549 55.4971 77.7619 52.5364 72.8944 52.0087C72.7771 52.0087 72.6598 51.9794 72.5425 51.9794C72.0734 51.9501 71.6042 51.9208 71.1351 51.9501C69.2878 51.9794 67.5285 52.3605 65.9158 53.0054C65.4173 53.2106 64.9188 53.4451 64.4497 53.6796C64.3324 53.7383 64.2444 53.7969 64.1565 53.8555C64.1565 53.8555 64.1271 53.8555 64.1271 53.8848C64.0099 53.9435 63.8926 54.0021 63.8046 54.09C63.6873 54.1487 63.5993 54.2366 63.4821 54.2952C63.3648 54.3539 63.2768 54.4418 63.1595 54.5004C63.0422 54.5591 62.9543 54.647 62.837 54.7056C62.7197 54.7936 62.6317 54.8522 62.5144 54.9401C61.6934 55.5557 60.9604 56.2593 60.286 57.0214C60.198 57.1094 60.1394 57.1973 60.0807 57.2853C59.8755 57.5491 59.6702 57.8129 59.4649 58.0767L58.9958 57.4318L52.369 48.4617L50.7856 46.3218L51.0202 46.0873C51.2548 45.8528 51.5187 45.589 51.7826 45.3545C52.0465 45.1199 52.3104 44.8854 52.5743 44.6509C52.7795 44.475 52.9848 44.2992 53.19 44.1526C53.8058 43.6542 54.4216 43.1852 55.0667 42.7455C55.3599 42.5403 55.6531 42.3644 55.9463 42.1592C60.4326 39.3158 65.7399 37.6742 71.4283 37.6742C86.4118 37.6742 98.6684 49.2532 100.222 63.8809C100.252 64.262 100.31 64.6431 100.31 65.0242C100.369 65.6984 100.369 66.3726 100.369 67.0468Z" fill="white"/>
<path d="M56.826 74.3167C55.9757 76.6325 54.8321 78.8017 53.454 80.7951L46.1821 70.9749C44.4815 68.6591 43.7484 65.757 44.1589 62.9135C44.4815 60.7443 44.9799 58.3406 45.5664 56.2593C45.713 55.7316 45.8596 55.2333 46.0062 54.7349L46.0355 54.6177C46.2994 53.7969 46.5633 53.0934 46.8272 52.5071C46.8272 52.5071 46.8272 52.5071 46.8272 52.5364L47.0911 52.8882L55.3306 64.0275C56.6501 65.8156 57.3831 67.9556 57.4711 70.1248C57.4711 70.1834 57.4711 70.2127 57.4711 70.2714C57.5297 71.6198 57.3245 72.9976 56.826 74.3167Z" fill="white"/>
<path d="M34.4533 79.5346C31.0813 81.0296 27.3867 81.8504 23.4869 81.8504C13.6054 81.8504 4.92607 76.5739 0.175907 68.6884C0.146585 68.3073 0.0879408 67.9263 0.0879408 67.5452C0.0292969 66.871 0.0292969 66.226 0.0292969 65.5518V37H4.25166C9.79352 37 14.3091 41.5144 14.3091 47.0547V65.6691C14.3091 68.3073 14.9835 70.799 16.1857 72.9683C18.4728 77.1015 22.6659 80.0623 27.5333 80.5899C27.6506 80.5899 27.7679 80.6192 27.8852 80.6192C28.3543 80.6485 28.8235 80.6778 29.2926 80.6485C31.0813 80.5606 32.8406 80.2088 34.4533 79.5346Z" fill="white"/>
<path d="M49.5833 86.2476L49.3488 86.4821C49.1142 86.7166 48.8503 86.9804 48.5864 87.2149C48.3225 87.4494 48.0586 87.6839 47.7947 87.9185C47.5894 88.0943 47.3842 88.2702 47.1789 88.4168C46.5632 88.9151 45.9474 89.3842 45.3023 89.8239C45.0091 90.0291 44.7159 90.2049 44.4227 90.4101C39.9364 93.2536 34.6291 94.8952 28.9407 94.8952C13.9571 94.8952 1.70055 83.3162 0.146484 68.6885C4.89665 76.5739 13.5759 81.8505 23.4575 81.8505C27.3573 81.8505 31.0812 81.0297 34.4239 79.5347C34.9224 79.3295 35.4208 79.0949 35.89 78.8604C36.0073 78.8018 36.0952 78.7432 36.1832 78.6845C36.1832 78.6845 36.2125 78.6845 36.2125 78.6552C36.3298 78.5966 36.4471 78.538 36.5351 78.45C36.6523 78.3914 36.7403 78.3035 36.8576 78.2448C36.9749 78.1862 37.0629 78.0983 37.1801 78.0396C37.2974 77.981 37.3854 77.8931 37.5027 77.8344C37.62 77.7465 37.7079 77.6879 37.8252 77.5999C38.6462 76.9843 39.3793 76.2808 40.0537 75.5186C40.1417 75.4307 40.2003 75.3428 40.2589 75.2548C40.4642 74.991 40.6695 74.7272 40.8747 74.4633L41.3439 75.1082L47.9706 84.0783L49.5833 86.2476Z" fill="white"/>
<path d="M65.916 53.0347C69.288 51.5397 72.9826 50.7189 76.8824 50.7189C86.7639 50.7189 95.4432 55.9954 100.193 63.8809C100.223 64.2619 100.281 64.643 100.281 65.0241C100.34 65.6983 100.34 66.3432 100.34 67.0174V95.5693H96.1763C90.6344 95.5693 86.1189 91.0549 86.1189 85.5146V66.9002C86.1189 64.2619 85.4444 61.7702 84.2422 59.601C81.9551 55.4677 77.7621 52.507 72.8946 51.9794C72.7774 51.9794 72.6601 51.9501 72.5428 51.9501C72.0736 51.9207 71.6045 51.8914 71.1353 51.9207C69.288 52.0087 67.5287 52.3898 65.916 53.0347Z" fill="white"/>
<path d="M50.7856 46.3218L51.0202 46.0873C51.2548 45.8528 51.5187 45.589 51.7826 45.3545C52.0465 45.1199 52.3104 44.8854 52.5743 44.6509C52.7795 44.475 52.9848 44.2992 53.19 44.1526C53.8058 43.6542 54.4216 43.1852 55.0667 42.7455C55.3599 42.5403 55.6531 42.3644 55.9463 42.1592C60.4326 39.3158 65.7399 37.6742 71.4283 37.6742C86.4118 37.6742 98.6684 49.2532 100.222 63.8809C95.4723 55.9954 86.793 50.7189 76.9115 50.7189C73.0117 50.7189 69.2878 51.5397 65.9451 53.0347C65.4466 53.2399 64.9482 53.4744 64.479 53.709C64.3617 53.7676 64.2737 53.8262 64.1858 53.8848C64.1858 53.8848 64.1565 53.8848 64.1565 53.9141C64.0392 53.9728 63.9219 54.0314 63.8339 54.1193C63.7166 54.178 63.6287 54.2366 63.5114 54.3245C63.3941 54.3832 63.3061 54.4711 63.1888 54.5297C63.0716 54.5884 62.9836 54.6763 62.8663 54.7349C62.749 54.8229 62.661 54.8815 62.5438 54.9695C61.7227 55.585 60.9897 56.2886 60.3153 57.0507C60.2273 57.1387 60.1687 57.2266 60.11 57.3146C59.9048 57.5784 59.6995 57.8422 59.4943 58.106L59.0251 57.4611L52.3984 48.4911L50.7856 46.3218Z" fill="white"/>
</svg>
